<svg width="42" height="41" viewBox="0 0 42 41" fill="none" xmlns="http://www.w3.org/2000/svg">
<path d="M33.075 20.9842C33.0923 20.9744 33.1057 20.9591 33.1134 20.9409C33.121 20.9226 33.1223 20.9024 33.1172 20.8834C33.112 20.8643 33.1007 20.8474 33.0848 20.8354C33.069 20.8234 33.0497 20.8169 33.0297 20.8169C33.0098 20.8169 32.9904 20.8234 32.9746 20.8354C32.9588 20.8474 32.9475 20.8643 32.9423 20.8834C32.9372 20.9024 32.9385 20.9226 32.9461 20.9409C32.9537 20.9591 32.9672 20.9744 32.9845 20.9842H33.075Z" fill="white"/>
<path d="M32.6948 24.1409C32.8148 24.1409 32.9121 24.0445 32.9121 23.9257C32.9121 23.8068 32.8148 23.7104 32.6948 23.7104C32.5748 23.7104 32.4776 23.8068 32.4776 23.9257C32.4776 24.0445 32.5748 24.1409 32.6948 24.1409Z" fill="white"/>
<path d="M31.5543 27.1001C31.6407 27.1001 31.7236 27.0661 31.7847 27.0056C31.8458 26.945 31.8802 26.8629 31.8802 26.7773C31.8803 26.6899 31.8466 26.6059 31.7859 26.5425C31.7253 26.479 31.6424 26.4411 31.5543 26.4365C31.4645 26.4409 31.3795 26.4782 31.316 26.5412C31.2524 26.6041 31.2147 26.6883 31.2103 26.7773C31.215 26.8645 31.2533 26.9467 31.3173 27.0067C31.3813 27.0668 31.4661 27.1002 31.5543 27.1001V27.1001Z" fill="white"/>
<path d="M29.744 29.6828C29.8463 29.6623 29.9383 29.6073 30.0043 29.5272C30.0704 29.4471 30.1065 29.3469 30.1065 29.2434C30.1065 29.14 30.0704 29.0398 30.0043 28.9597C29.9383 28.8796 29.8463 28.8246 29.744 28.804C29.6782 28.7908 29.6104 28.7922 29.5452 28.8082C29.4801 28.8241 29.4194 28.8542 29.3675 28.8963C29.3155 28.9383 29.2737 28.9913 29.245 29.0513C29.2162 29.1114 29.2013 29.177 29.2013 29.2434C29.2013 29.3099 29.2162 29.3755 29.245 29.4355C29.2737 29.4956 29.3155 29.5485 29.3675 29.5906C29.4194 29.6326 29.4801 29.6627 29.5452 29.6787C29.6104 29.6946 29.6782 29.6961 29.744 29.6828Z" fill="white"/>
<path d="M27.3543 31.7275C27.6443 31.7275 27.8793 31.4946 27.8793 31.2074C27.8793 30.9201 27.6443 30.6873 27.3543 30.6873C27.0644 30.6873 26.8293 30.9201 26.8293 31.2074C26.8293 31.4946 27.0644 31.7275 27.3543 31.7275Z" fill="white"/>
<path d="M24.5664 33.0547C24.6392 33.0547 24.7114 33.0403 24.7785 33.0121C24.8456 32.9839 24.9063 32.9427 24.957 32.8908C25.0076 32.8389 25.0473 32.7775 25.0735 32.7101C25.0997 32.6428 25.1119 32.5709 25.1095 32.4987C25.112 32.4274 25.0997 32.3563 25.0733 32.2899C25.0469 32.2235 25.007 32.1631 24.956 32.1127C24.9051 32.0622 24.8442 32.0227 24.7772 31.9965C24.7101 31.9703 24.6384 31.9581 24.5664 31.9606C24.4935 31.9582 24.421 31.9704 24.353 31.9963C24.285 32.0223 24.223 32.0616 24.1706 32.1118C24.1182 32.162 24.0766 32.2221 24.0482 32.2886C24.0198 32.3551 24.0051 32.4265 24.0052 32.4987C24.0052 32.6462 24.0643 32.7876 24.1695 32.8919C24.2748 32.9961 24.4175 33.0547 24.5664 33.0547V33.0547Z" fill="white"/>
<path d="M21.525 33.6465C21.6786 33.6465 21.826 33.586 21.9346 33.4784C22.0433 33.3708 22.1043 33.2248 22.1043 33.0726C22.1043 32.9972 22.0893 32.9226 22.0602 32.853C22.0311 32.7833 21.9884 32.72 21.9346 32.6668C21.8808 32.6135 21.817 32.5712 21.7467 32.5423C21.6764 32.5135 21.6011 32.4987 21.525 32.4987C21.3728 32.5032 21.2281 32.5651 21.1204 32.6717C21.0127 32.7784 20.9502 32.9218 20.9457 33.0726C20.9457 33.2248 21.0067 33.3708 21.1154 33.4784C21.224 33.586 21.3714 33.6465 21.525 33.6465Z" fill="white"/>
<path d="M18.4474 33.4671C18.5663 33.4707 18.6835 33.4391 18.7841 33.3762C18.8847 33.3134 18.9641 33.2223 19.0121 33.1145C19.0601 33.0067 19.0745 32.8872 19.0536 32.7712C19.0326 32.6552 18.9772 32.5481 18.8944 32.4635C18.8116 32.379 18.7052 32.3208 18.5889 32.2964C18.4725 32.2721 18.3515 32.2827 18.2413 32.327C18.1311 32.3712 18.0367 32.447 17.9702 32.5447C17.9037 32.6424 17.8682 32.7575 17.8681 32.8753C17.8657 32.9521 17.8789 33.0287 17.9069 33.1004C17.9349 33.1721 17.9772 33.2375 18.0312 33.2928C18.0853 33.348 18.15 33.3919 18.2215 33.4218C18.2929 33.4518 18.3698 33.4672 18.4474 33.4671V33.4671Z" fill="white"/>
<path d="M15.5147 32.5883C15.8746 32.5883 16.1664 32.2993 16.1664 31.9427C16.1664 31.5861 15.8746 31.297 15.5147 31.297C15.1547 31.297 14.8629 31.5861 14.8629 31.9427C14.8629 32.2993 15.1547 32.5883 15.5147 32.5883Z" fill="white"/>
<path d="M12.9078 30.9742C13.2877 30.9742 13.5957 30.669 13.5957 30.2926C13.5957 29.9162 13.2877 29.6111 12.9078 29.6111C12.5278 29.6111 12.2198 29.9162 12.2198 30.2926C12.2198 30.669 12.5278 30.9742 12.9078 30.9742Z" fill="white"/>
<path d="M10.8621 28.8758C11.0781 28.8758 11.2853 28.7907 11.4381 28.6394C11.5909 28.488 11.6767 28.2827 11.6767 28.0687C11.6767 27.8546 11.5909 27.6493 11.4381 27.498C11.2853 27.3466 11.0781 27.2616 10.8621 27.2616C10.646 27.2616 10.4388 27.3466 10.286 27.498C10.1332 27.6493 10.0474 27.8546 10.0474 28.0687C10.0474 28.2827 10.1332 28.488 10.286 28.6394C10.4388 28.7907 10.646 28.8758 10.8621 28.8758V28.8758Z" fill="white"/>
<path d="M9.30517 26.3111C9.49136 26.3111 9.67336 26.2564 9.82817 26.1539C9.98298 26.0514 10.1036 25.9058 10.1749 25.7353C10.2461 25.5649 10.2648 25.3774 10.2285 25.1965C10.1921 25.0156 10.1025 24.8494 9.97083 24.719C9.83917 24.5885 9.67144 24.4997 9.48883 24.4637C9.30622 24.4277 9.11694 24.4462 8.94492 24.5168C8.77291 24.5874 8.62588 24.7069 8.52244 24.8603C8.419 25.0137 8.36379 25.194 8.36379 25.3784C8.36133 25.5016 8.384 25.6239 8.43043 25.7382C8.47687 25.8525 8.54612 25.9562 8.63403 26.0433C8.72194 26.1304 8.8267 26.199 8.94203 26.245C9.05736 26.2911 9.18087 26.3135 9.30517 26.3111V26.3111Z" fill="white"/>
<path d="M8.52672 23.4593C8.73439 23.4593 8.9374 23.3983 9.11007 23.284C9.28274 23.1697 9.41733 23.0072 9.4968 22.8171C9.57627 22.627 9.59706 22.4179 9.55655 22.2161C9.51603 22.0143 9.41603 21.8289 9.26919 21.6835C9.12234 21.538 8.93525 21.4389 8.73157 21.3988C8.52789 21.3586 8.31677 21.3792 8.12491 21.458C7.93304 21.5367 7.76906 21.67 7.65368 21.8411C7.53831 22.0122 7.47672 22.2133 7.47672 22.419C7.47672 22.6949 7.58735 22.9595 7.78426 23.1546C7.98118 23.3497 8.24825 23.4593 8.52672 23.4593Z" fill="white"/>
<path d="M8.52672 20.4103C8.73947 20.4138 8.94844 20.3543 9.12684 20.2394C9.30524 20.1245 9.44493 19.9595 9.528 19.7654C9.61108 19.5713 9.63376 19.3571 9.59312 19.1502C9.55249 18.9432 9.4504 18.7531 9.29994 18.604C9.14948 18.4549 8.95751 18.3538 8.74865 18.3135C8.53978 18.2733 8.32354 18.2957 8.12765 18.3781C7.93176 18.4604 7.76515 18.5988 7.64917 18.7755C7.5332 18.9522 7.47315 19.1593 7.47672 19.37C7.47672 19.6459 7.58735 19.9105 7.78426 20.1056C7.98117 20.3007 8.24825 20.4103 8.52672 20.4103Z" fill="white"/>
<path d="M9.30517 17.4689C9.52 17.4689 9.73001 17.4058 9.90864 17.2875C10.0873 17.1693 10.2265 17.0012 10.3087 16.8046C10.3909 16.6079 10.4124 16.3916 10.3705 16.1828C10.3286 15.9741 10.2251 15.7823 10.0732 15.6318C9.92133 15.4813 9.72778 15.3789 9.51708 15.3373C9.30638 15.2958 9.08798 15.3171 8.8895 15.3986C8.69102 15.48 8.52138 15.6179 8.40202 15.7949C8.28267 15.9719 8.21897 16.1799 8.21897 16.3928C8.21897 16.6782 8.3334 16.9519 8.53711 17.1537C8.74081 17.3555 9.01709 17.4689 9.30517 17.4689V17.4689Z" fill="white"/>
<path d="M10.7897 14.9042C11.4495 14.9042 11.9845 14.3742 11.9845 13.7205C11.9845 13.0667 11.4495 12.5367 10.7897 12.5367C10.1298 12.5367 9.59483 13.0667 9.59483 13.7205C9.59483 14.3742 10.1298 14.9042 10.7897 14.9042Z" fill="white"/>
<path d="M12.9078 12.752C13.0757 12.752 13.242 12.719 13.3969 12.6548C13.5519 12.5906 13.6924 12.4965 13.8103 12.378C13.9282 12.2595 14.0212 12.119 14.0838 11.9646C14.1464 11.8102 14.1774 11.645 14.175 11.4786C14.175 11.3137 14.1422 11.1505 14.0785 10.9982C14.0149 10.8459 13.9215 10.7075 13.8038 10.5909C13.6862 10.4743 13.5465 10.3818 13.3927 10.3187C13.239 10.2556 13.0742 10.2232 12.9078 10.2232C12.7398 10.2208 12.5731 10.2515 12.4172 10.3135C12.2614 10.3755 12.1196 10.4676 12 10.5845C11.8804 10.7013 11.7854 10.8405 11.7206 10.994C11.6558 11.1475 11.6224 11.3122 11.6224 11.4786C11.6224 11.6458 11.6557 11.8114 11.7203 11.9659C11.7848 12.1204 11.8795 12.2608 11.9989 12.3791C12.1182 12.4973 12.2599 12.5911 12.4159 12.6551C12.5718 12.7191 12.739 12.752 12.9078 12.752V12.752Z" fill="white"/>
<path d="M15.5147 11.1737C16.2545 11.1737 16.8543 10.5795 16.8543 9.8465C16.8543 9.1135 16.2545 8.51929 15.5147 8.51929C14.7748 8.51929 14.175 9.1135 14.175 9.8465C14.175 10.5795 14.7748 11.1737 15.5147 11.1737Z" fill="white"/>
<path d="M18.4474 10.2411C18.719 10.2407 18.9841 10.1596 19.2087 10.0084C19.4333 9.8572 19.607 9.64273 19.7072 9.39273C19.8075 9.14274 19.8299 8.86869 19.7713 8.60599C19.7128 8.34329 19.5761 8.10402 19.3789 7.91907C19.1817 7.73413 18.9331 7.61201 18.6651 7.5685C18.3971 7.52498 18.1222 7.56207 17.8757 7.67497C17.6292 7.78786 17.4226 7.97138 17.2824 8.20182C17.1423 8.43226 17.0752 8.69903 17.0897 8.96767C17.1082 9.31184 17.2594 9.63583 17.5121 9.87278C17.7647 10.1097 18.0995 10.2416 18.4474 10.2411V10.2411Z" fill="white"/>
<path d="M21.525 10.0617C21.7979 10.0617 22.0646 9.98129 22.2912 9.83071C22.5179 9.68012 22.6942 9.46617 22.7978 9.21605C22.9014 8.96594 22.9275 8.69095 22.873 8.42606C22.8184 8.16117 22.6855 7.91834 22.4913 7.72845C22.2971 7.53855 22.0502 7.41016 21.7821 7.35961C21.5141 7.30906 21.2369 7.33863 20.9858 7.44455C20.7347 7.55047 20.5211 7.72797 20.3722 7.95448C20.2232 8.18098 20.1455 8.44626 20.1491 8.71659C20.1539 9.07498 20.301 9.4171 20.5585 9.66886C20.816 9.92062 21.1632 10.0618 21.525 10.0617V10.0617Z" fill="white"/>
<path d="M24.5664 10.6535C24.8428 10.6535 25.1131 10.572 25.3427 10.4195C25.5723 10.2669 25.7509 10.0502 25.8559 9.79676C25.9608 9.54337 25.9874 9.26478 25.9321 8.99641C25.8768 8.72804 25.7422 8.48201 25.5455 8.28961C25.3487 8.0972 25.0986 7.96711 24.8271 7.91587C24.5555 7.86462 24.2746 7.89454 24.0203 8.00182C23.7659 8.1091 23.5495 8.2889 23.3985 8.51835C23.2475 8.74781 23.1688 9.01656 23.1724 9.29043C23.1724 9.47095 23.2086 9.64968 23.2788 9.81623C23.3491 9.98279 23.4521 10.1339 23.5818 10.2607C23.7115 10.3875 23.8653 10.4875 24.0343 10.5549C24.2033 10.6224 24.3842 10.6559 24.5664 10.6535V10.6535Z" fill="white"/>
<path d="M27.3543 11.9808C28.1342 11.9808 28.7664 11.3544 28.7664 10.5818C28.7664 9.80919 28.1342 9.18286 27.3543 9.18286C26.5744 9.18286 25.9422 9.80919 25.9422 10.5818C25.9422 11.3544 26.5744 11.9808 27.3543 11.9808Z" fill="white"/>
<path d="M29.744 13.9357C30.5238 13.9357 31.156 13.3094 31.156 12.5368C31.156 11.7641 30.5238 11.1378 29.744 11.1378C28.9641 11.1378 28.3319 11.7641 28.3319 12.5368C28.3319 13.3094 28.9641 13.9357 29.744 13.9357Z" fill="white"/>
<path d="M31.5543 16.4287C32.3442 16.4287 32.9845 15.7944 32.9845 15.0119C32.9845 14.2293 32.3442 13.595 31.5543 13.595C30.7644 13.595 30.1241 14.2293 30.1241 15.0119C30.1241 15.7944 30.7644 16.4287 31.5543 16.4287Z" fill="white"/>
<path d="M32.6948 19.37C32.9999 19.37 33.2982 19.2801 33.5516 19.1118C33.805 18.9435 34.0022 18.7043 34.1181 18.4247C34.2341 18.1451 34.2634 17.8377 34.2026 17.5415C34.1417 17.2453 33.9934 16.9737 33.7764 16.7612C33.5593 16.5487 33.2835 16.405 32.9838 16.3482C32.6841 16.2914 32.3741 16.3242 32.0933 16.4423C31.8125 16.5604 31.5734 16.7586 31.4065 17.0117C31.2396 17.2647 31.1524 17.5612 31.156 17.8635C31.1608 18.2647 31.325 18.6479 31.6131 18.9299C31.9011 19.2119 32.2898 19.3701 32.6948 19.37Z" fill="white"/>
<path d="M35.2112 24.1229C35.2592 24.1229 35.3053 24.104 35.3392 24.0704C35.3732 24.0367 35.3922 23.9911 35.3922 23.9435C35.3951 23.9193 35.3925 23.8947 35.3844 23.8716C35.3763 23.8486 35.3631 23.8276 35.3457 23.8103C35.3282 23.7931 35.3071 23.7799 35.2838 23.772C35.2605 23.764 35.2357 23.7613 35.2112 23.7642C35.1632 23.7642 35.1171 23.7831 35.0832 23.8167C35.0492 23.8504 35.0302 23.896 35.0302 23.9435C35.0342 23.9898 35.0546 24.0331 35.0877 24.0659C35.1208 24.0987 35.1646 24.1189 35.2112 24.1229V24.1229Z" fill="white"/>
<path d="M34.2698 27.1361C34.3435 27.1315 34.4126 27.0993 34.463 27.0459C34.5135 26.9926 34.5415 26.9222 34.5414 26.8491C34.5414 26.7778 34.5128 26.7093 34.4618 26.6589C34.4109 26.6084 34.3418 26.5801 34.2698 26.5801C34.196 26.5799 34.125 26.6077 34.0712 26.6577C34.0173 26.7077 33.9848 26.7762 33.9802 26.8491C33.9802 26.9252 34.0107 26.9982 34.065 27.052C34.1193 27.1058 34.193 27.1361 34.2698 27.1361Z" fill="white"/>
<path d="M32.7129 29.8801C32.9229 29.8801 33.0931 29.7115 33.0931 29.5035C33.0931 29.2955 32.9229 29.1268 32.7129 29.1268C32.503 29.1268 32.3328 29.2955 32.3328 29.5035C32.3328 29.7115 32.503 29.8801 32.7129 29.8801Z" fill="white"/>
<path d="M30.6491 32.2117C30.8891 32.2117 31.0836 32.019 31.0836 31.7813C31.0836 31.5435 30.8891 31.3508 30.6491 31.3508C30.4092 31.3508 30.2147 31.5435 30.2147 31.7813C30.2147 32.019 30.4092 32.2117 30.6491 32.2117Z" fill="white"/>
<path d="M28.1509 34.077C28.2821 34.0724 28.4065 34.0174 28.4976 33.9237C28.5888 33.8301 28.6397 33.705 28.6397 33.5748C28.6397 33.4464 28.5882 33.3232 28.4965 33.2324C28.4048 33.1416 28.2805 33.0906 28.1509 33.0906C28.0195 33.0905 27.8932 33.1409 27.7987 33.2313C27.7041 33.3216 27.6487 33.4448 27.644 33.5748C27.6485 33.7066 27.7033 33.8317 27.7974 33.925C27.8915 34.0182 28.0179 34.0725 28.1509 34.077V34.077Z" fill="white"/>
<path d="M25.3448 35.3503C25.4232 35.3647 25.5038 35.3618 25.5809 35.3418C25.658 35.3219 25.7297 35.2854 25.7909 35.2349C25.8522 35.1844 25.9015 35.1211 25.9353 35.0497C25.9691 34.9782 25.9867 34.9002 25.9867 34.8213C25.9867 34.7423 25.9691 34.6643 25.9353 34.5929C25.9015 34.5214 25.8522 34.4581 25.7909 34.4077C25.7297 34.3572 25.658 34.3206 25.5809 34.3007C25.5038 34.2807 25.4232 34.2778 25.3448 34.2922C25.2665 34.2778 25.1859 34.2807 25.1088 34.3007C25.0317 34.3206 24.96 34.3572 24.8987 34.4077C24.8375 34.4581 24.7882 34.5214 24.7543 34.5929C24.7205 34.6643 24.703 34.7423 24.703 34.8213C24.703 34.9002 24.7205 34.9782 24.7543 35.0497C24.7882 35.1211 24.8375 35.1844 24.8987 35.2349C24.96 35.2854 25.0317 35.3219 25.1088 35.3418C25.1859 35.3618 25.2665 35.3647 25.3448 35.3503V35.3503Z" fill="white"/>
<path d="M22.3034 36.0319C22.3787 36.0319 22.4532 36.017 22.5225 35.9879C22.5918 35.9588 22.6545 35.9163 22.7068 35.8627C22.7592 35.8092 22.8001 35.7458 22.8272 35.6762C22.8544 35.6067 22.8671 35.5325 22.8647 35.4579C22.8796 35.3753 22.876 35.2905 22.8542 35.2094C22.8325 35.1283 22.793 35.0529 22.7386 34.9885C22.6843 34.9242 22.6163 34.8724 22.5395 34.8369C22.4628 34.8014 22.3791 34.783 22.2944 34.783C22.2097 34.783 22.126 34.8014 22.0492 34.8369C21.9725 34.8724 21.9045 34.9242 21.8502 34.9885C21.7958 35.0529 21.7563 35.1283 21.7345 35.2094C21.7128 35.2905 21.7092 35.3753 21.7241 35.4579C21.7241 35.6102 21.7852 35.7561 21.8938 35.8638C22.0025 35.9714 22.1498 36.0319 22.3034 36.0319Z" fill="white"/>
<path d="M19.2078 36.0319C19.3223 36.0319 19.4343 35.9982 19.5296 35.9352C19.6249 35.8721 19.6991 35.7825 19.743 35.6776C19.7868 35.5727 19.7983 35.4573 19.7759 35.346C19.7536 35.2347 19.6984 35.1324 19.6174 35.0521C19.5364 34.9719 19.4332 34.9172 19.3208 34.8951C19.2084 34.8729 19.0919 34.8843 18.9861 34.9277C18.8802 34.9712 18.7897 35.0447 18.7261 35.1391C18.6624 35.2335 18.6284 35.3445 18.6284 35.458C18.6284 35.6102 18.6895 35.7562 18.7981 35.8638C18.9068 35.9714 19.0541 36.0319 19.2078 36.0319Z" fill="white"/>
<path d="M16.1845 35.458C16.3149 35.4615 16.4433 35.4262 16.5532 35.3567C16.6631 35.2871 16.7494 35.1865 16.801 35.0678C16.8525 34.9491 16.867 34.8178 16.8424 34.6909C16.8178 34.564 16.7554 34.4473 16.6632 34.356C16.571 34.2646 16.4532 34.2028 16.3251 34.1784C16.197 34.1541 16.0645 34.1684 15.9447 34.2195C15.8249 34.2705 15.7233 34.356 15.6531 34.4649C15.5829 34.5738 15.5473 34.7011 15.5509 34.8302C15.5509 34.9967 15.6176 35.1564 15.7364 35.2741C15.8553 35.3918 16.0164 35.458 16.1845 35.458V35.458Z" fill="white"/>
<path d="M13.3603 34.2564C13.4964 34.2564 13.6294 34.2164 13.7425 34.1415C13.8557 34.0666 13.9438 33.9602 13.9959 33.8357C14.048 33.7111 14.0616 33.5741 14.0351 33.4419C14.0085 33.3097 13.943 33.1882 13.8468 33.0929C13.7506 32.9976 13.628 32.9327 13.4946 32.9064C13.3611 32.8801 13.2228 32.8936 13.0971 32.9452C12.9714 32.9968 12.8639 33.0841 12.7884 33.1962C12.7128 33.3083 12.6724 33.4401 12.6724 33.5748C12.6724 33.6644 12.6902 33.753 12.7248 33.8357C12.7594 33.9184 12.81 33.9935 12.8739 34.0568C12.9378 34.1201 13.0136 34.1703 13.0971 34.2045C13.1805 34.2388 13.27 34.2564 13.3603 34.2564V34.2564Z" fill="white"/>
<path d="M10.8621 32.5704C11.0196 32.5704 11.1736 32.5241 11.3046 32.4374C11.4356 32.3507 11.5377 32.2274 11.598 32.0832C11.6583 31.939 11.674 31.7803 11.6433 31.6273C11.6126 31.4742 11.5367 31.3336 11.4253 31.2232C11.3139 31.1128 11.172 31.0377 11.0175 31.0072C10.863 30.9768 10.7028 30.9924 10.5572 31.0521C10.4117 31.1119 10.2873 31.213 10.1998 31.3428C10.1122 31.4726 10.0655 31.6251 10.0655 31.7812C10.0655 31.9905 10.1494 32.1912 10.2988 32.3392C10.4482 32.4872 10.6508 32.5704 10.8621 32.5704V32.5704Z" fill="white"/>
<path d="M8.79828 30.3644C8.96932 30.3609 9.13552 30.3074 9.27601 30.2107C9.41651 30.114 9.52507 29.9783 9.58807 29.8207C9.65107 29.6632 9.66572 29.4906 9.63018 29.3249C9.59463 29.1591 9.51047 29.0073 9.38826 28.8887C9.26604 28.7701 9.1112 28.6899 8.94315 28.6581C8.7751 28.6263 8.60132 28.6444 8.44359 28.71C8.28586 28.7757 8.1512 28.886 8.05649 29.0272C7.96178 29.1683 7.91124 29.334 7.91121 29.5035C7.91118 29.6181 7.93424 29.7315 7.97904 29.8372C8.02384 29.9428 8.08947 30.0385 8.17209 30.1187C8.25471 30.1989 8.35265 30.2619 8.46017 30.3041C8.5677 30.3463 8.68265 30.3668 8.79828 30.3644V30.3644Z" fill="white"/>
<path d="M7.24138 27.8535C7.44414 27.8532 7.64216 27.7927 7.80984 27.6797C7.97753 27.5668 8.10719 27.4067 8.18206 27.22C8.25694 27.0333 8.27359 26.8287 8.22987 26.6325C8.18614 26.4364 8.08405 26.2577 7.93679 26.1196C7.78952 25.9816 7.60385 25.8904 7.40375 25.8579C7.20366 25.8255 6.99833 25.8532 6.81431 25.9375C6.63028 26.0219 6.476 26.1589 6.37141 26.331C6.26682 26.5031 6.21672 26.7023 6.22759 26.9029C6.2415 27.1598 6.35442 27.4017 6.54306 27.5786C6.73169 27.7554 6.98165 27.8538 7.24138 27.8535V27.8535Z" fill="white"/>
<path d="M6.2819 24.9479C6.54125 24.9341 6.78537 24.8223 6.9639 24.6354C7.14243 24.4485 7.24175 24.2009 7.24138 23.9436C7.26081 23.7992 7.24887 23.6523 7.20637 23.5129C7.16386 23.3735 7.09177 23.2446 6.99492 23.135C6.89806 23.0254 6.77869 22.9376 6.64479 22.8774C6.51089 22.8173 6.36556 22.7861 6.21853 22.7861C6.0715 22.7861 5.92617 22.8173 5.79228 22.8774C5.65838 22.9376 5.539 23.0254 5.44215 23.135C5.3453 23.2446 5.27321 23.3735 5.2307 23.5129C5.18819 23.6523 5.17626 23.7992 5.19569 23.9436C5.19533 24.0817 5.22375 24.2185 5.27917 24.3452C5.33458 24.472 5.4158 24.5861 5.51775 24.6804C5.6197 24.7746 5.74018 24.8471 5.87166 24.8931C6.00314 24.9391 6.1428 24.9578 6.2819 24.9479V24.9479Z" fill="white"/>
<path d="M5.97414 21.9349C6.25261 21.9349 6.51969 21.8253 6.7166 21.6302C6.91351 21.4351 7.02414 21.1705 7.02414 20.8946C7.02414 20.6187 6.91351 20.3541 6.7166 20.1591C6.51969 19.964 6.25261 19.8544 5.97414 19.8544C5.69566 19.8544 5.42859 19.964 5.23168 20.1591C5.03476 20.3541 4.92414 20.6187 4.92414 20.8946C4.92414 21.1705 5.03476 21.4351 5.23168 21.6302C5.42859 21.8253 5.69566 21.9349 5.97414 21.9349Z" fill="white"/>
<path d="M6.2819 18.8858C6.49326 18.885 6.69946 18.821 6.87354 18.7023C7.04762 18.5835 7.18146 18.4154 7.25756 18.2201C7.33367 18.0247 7.34849 17.8112 7.30009 17.6073C7.25169 17.4035 7.14232 17.2189 6.98629 17.0776C6.83026 16.9364 6.63483 16.8451 6.42556 16.8156C6.21629 16.7862 6.00293 16.82 5.81339 16.9127C5.62384 17.0053 5.46693 17.1525 5.36318 17.3349C5.25943 17.5174 5.21368 17.7266 5.2319 17.9352C5.25461 18.1953 5.37518 18.4374 5.56969 18.6135C5.76419 18.7896 6.01841 18.8868 6.2819 18.8858V18.8858Z" fill="white"/>
<path d="M7.24138 16.1418C7.46845 16.1453 7.69143 16.0816 7.88173 15.9588C8.07204 15.8361 8.22101 15.6598 8.30957 15.4526C8.39813 15.2454 8.42224 15.0168 8.37881 14.7959C8.33538 14.5751 8.22639 14.3721 8.06581 14.213C7.90522 14.0539 7.70035 13.946 7.47744 13.9029C7.25453 13.8599 7.02372 13.8838 6.8146 13.9715C6.60547 14.0593 6.42755 14.2069 6.30362 14.3954C6.17968 14.5839 6.11539 14.8048 6.11897 15.0298C6.12363 15.3233 6.24338 15.6034 6.45287 15.811C6.66236 16.0185 6.94515 16.1372 7.24138 16.1418V16.1418Z" fill="white"/>
<path d="M8.79828 13.4694C9.03894 13.4693 9.27415 13.3984 9.47399 13.2655C9.67383 13.1327 9.82926 12.9439 9.92051 12.7233C10.0118 12.5027 10.0347 12.2602 9.98641 12.0266C9.93812 11.793 9.82079 11.579 9.64934 11.4116C9.47789 11.2443 9.26008 11.1313 9.02361 11.087C8.78715 11.0427 8.54272 11.069 8.32143 11.1627C8.10013 11.2564 7.91198 11.4133 7.7809 11.6132C7.64982 11.8132 7.58175 12.0472 7.58534 12.2856C7.5901 12.6012 7.71999 12.9023 7.94694 13.1238C8.1739 13.3453 8.4797 13.4694 8.79828 13.4694V13.4694Z" fill="white"/>
<path d="M10.8621 11.2454C11.1934 11.2454 11.5111 11.1151 11.7453 10.883C11.9796 10.6509 12.1112 10.3361 12.1112 10.0079C12.1112 9.67802 11.9802 9.36138 11.7465 9.12644C11.5127 8.8915 11.195 8.75715 10.8621 8.75244C10.5274 8.75708 10.2078 8.89084 9.97117 9.12529C9.73452 9.35974 9.59951 9.67638 9.59483 10.0079C9.59958 10.3378 9.73519 10.6525 9.97233 10.8841C10.2095 11.1157 10.5291 11.2455 10.8621 11.2454V11.2454Z" fill="white"/>
<path d="M13.3603 9.48773C13.6146 9.48773 13.8631 9.41304 14.0744 9.27312C14.2858 9.13319 14.4506 8.93432 14.5478 8.70163C14.6451 8.46895 14.6706 8.21291 14.621 7.96589C14.5714 7.71888 14.449 7.49198 14.2692 7.31389C14.0895 7.1358 13.8604 7.01452 13.6111 6.96539C13.3618 6.91625 13.1033 6.94147 12.8685 7.03785C12.6336 7.13423 12.4329 7.29745 12.2916 7.50686C12.1504 7.71627 12.075 7.96247 12.075 8.21432C12.075 8.55205 12.2104 8.87594 12.4515 9.11475C12.6925 9.35356 13.0195 9.48773 13.3603 9.48773V9.48773Z" fill="white"/>
<path d="M16.1845 8.30406C16.453 8.30406 16.7155 8.22517 16.9388 8.07736C17.1621 7.92955 17.3361 7.71947 17.4389 7.47368C17.5417 7.22789 17.5685 6.95742 17.5162 6.69649C17.4638 6.43556 17.3344 6.19588 17.1446 6.00775C16.9547 5.81963 16.7127 5.69152 16.4494 5.63962C16.186 5.58771 15.913 5.61435 15.6649 5.71616C15.4168 5.81797 15.2047 5.99038 15.0555 6.21159C14.9064 6.4328 14.8267 6.69287 14.8267 6.95891C14.8267 7.31567 14.9698 7.65781 15.2244 7.91008C15.479 8.16234 15.8244 8.30406 16.1845 8.30406V8.30406Z" fill="white"/>
<path d="M19.2078 7.67624C19.4814 7.67978 19.7499 7.60241 19.9789 7.45401C20.2079 7.3056 20.387 7.09291 20.4934 6.84312C20.5998 6.59333 20.6285 6.31779 20.576 6.05172C20.5235 5.78565 20.3921 5.54114 20.1986 5.34943C20.0051 5.15773 19.7583 5.02755 19.4898 4.97553C19.2212 4.9235 18.9431 4.95201 18.6909 5.05739C18.4388 5.16277 18.2241 5.34025 18.0743 5.56714C17.9245 5.79402 17.8464 6.06001 17.85 6.33109C17.85 6.68785 17.993 7.02999 18.2477 7.28225C18.5023 7.53452 18.8477 7.67624 19.2078 7.67624V7.67624Z" fill="white"/>
<path d="M22.3034 7.67623C22.5763 7.67621 22.843 7.59579 23.0697 7.44521C23.2963 7.29462 23.4726 7.08067 23.5762 6.83055C23.6798 6.58044 23.706 6.30545 23.6514 6.04056C23.5968 5.77567 23.464 5.53285 23.2697 5.34295C23.0755 5.15305 22.8287 5.02467 22.5606 4.97412C22.2925 4.92356 22.0153 4.95313 21.7643 5.05905C21.5132 5.16498 21.2996 5.34247 21.1506 5.56898C21.0016 5.79548 20.924 6.06076 20.9276 6.33109C20.9323 6.68948 21.0794 7.0316 21.3369 7.28336C21.5944 7.53512 21.9417 7.67626 22.3034 7.67623V7.67623Z" fill="white"/>
<path d="M25.3267 8.33991C26.0966 8.33991 26.7207 7.72161 26.7207 6.9589C26.7207 6.19618 26.0966 5.57788 25.3267 5.57788C24.5569 5.57788 23.9328 6.19618 23.9328 6.9589C23.9328 7.72161 24.5569 8.33991 25.3267 8.33991Z" fill="white"/>
<path d="M28.1509 9.5954C28.9207 9.5954 29.5448 8.9771 29.5448 8.21439C29.5448 7.45168 28.9207 6.83337 28.1509 6.83337C27.381 6.83337 26.7569 7.45168 26.7569 8.21439C26.7569 8.9771 27.381 9.5954 28.1509 9.5954Z" fill="white"/>
<path d="M30.6491 11.4068C31.0236 11.4068 31.3828 11.2594 31.6476 10.997C31.9124 10.7347 32.0612 10.3789 32.0612 10.0078C32.0612 9.63513 31.913 9.27743 31.6487 9.01223C31.3844 8.74702 31.0253 8.59566 30.6491 8.59094C30.2713 8.59559 29.9102 8.74636 29.643 9.01108C29.3758 9.2758 29.2237 9.63349 29.219 10.0078C29.2237 10.3805 29.3765 10.7363 29.6442 10.9981C29.9119 11.26 30.2729 11.4068 30.6491 11.4068V11.4068Z" fill="white"/>
<path d="M32.7129 13.7025C32.9023 13.7049 33.0902 13.67 33.2658 13.5999C33.4414 13.5297 33.6012 13.4257 33.7359 13.2939C33.8707 13.1621 33.9776 13.0051 34.0506 12.832C34.1236 12.659 34.1612 12.4732 34.1612 12.2857C34.1612 11.9051 34.0086 11.5402 33.737 11.2711C33.4654 11.002 33.097 10.8508 32.7129 10.8508C32.5236 10.8508 32.3361 10.888 32.1614 10.9604C31.9867 11.0327 31.8282 11.1387 31.6952 11.2721C31.5621 11.4056 31.4572 11.5639 31.3864 11.7379C31.3156 11.9119 31.2804 12.0981 31.2828 12.2857C31.2828 12.6614 31.4334 13.0218 31.7016 13.2875C31.9699 13.5533 32.3336 13.7025 32.7129 13.7025V13.7025Z" fill="white"/>
<path d="M34.2698 16.3749C34.5606 16.3749 34.8448 16.2892 35.0864 16.1287C35.3279 15.9683 35.5158 15.7403 35.6262 15.4738C35.7367 15.2073 35.7646 14.9143 35.7066 14.632C35.6485 14.3498 35.507 14.0909 35.3001 13.8885C35.0932 13.6861 34.8303 13.5491 34.5446 13.4951C34.259 13.4411 33.9636 13.4725 33.696 13.5852C33.4284 13.6979 33.2007 13.8869 33.0417 14.1281C32.8828 14.3694 32.7999 14.652 32.8034 14.9401C32.8034 15.13 32.8415 15.318 32.9154 15.4933C32.9893 15.6686 33.0976 15.8275 33.234 15.961C33.3704 16.0945 33.5322 16.1998 33.71 16.2708C33.8878 16.3419 34.0781 16.3772 34.2698 16.3749V16.3749Z" fill="white"/>
<path d="M35.2112 19.37C36.0611 19.37 36.75 18.6875 36.75 17.8455C36.75 17.0036 36.0611 16.321 35.2112 16.321C34.3614 16.321 33.6724 17.0036 33.6724 17.8455C33.6724 18.6875 34.3614 19.37 35.2112 19.37Z" fill="white"/>
<path d="M37.7276 24.087C37.7562 24.087 37.7842 24.0786 37.808 24.0628C37.8319 24.0471 37.8504 24.0247 37.8614 23.9984C37.8723 23.9722 37.8752 23.9434 37.8696 23.9155C37.864 23.8877 37.8502 23.8621 37.83 23.8421C37.8097 23.822 37.7839 23.8083 37.7558 23.8028C37.7277 23.7973 37.6986 23.8001 37.6722 23.811C37.6457 23.8218 37.6231 23.8402 37.6072 23.8638C37.5913 23.8874 37.5828 23.9152 37.5828 23.9435C37.5797 23.9631 37.5813 23.9831 37.5875 24.0019C37.5936 24.0207 37.6042 24.0378 37.6183 24.0518C37.6325 24.0657 37.6497 24.0762 37.6687 24.0824C37.6877 24.0885 37.7079 24.0901 37.7276 24.087V24.087Z" fill="white"/>
<path d="M36.9129 27.136C36.9438 27.136 36.9744 27.13 37.003 27.1182C37.0315 27.1065 37.0575 27.0893 37.0793 27.0677C37.1012 27.046 37.1185 27.0203 37.1304 26.9921C37.1422 26.9638 37.1483 26.9334 37.1483 26.9028C37.1508 26.8707 37.1465 26.8385 37.1358 26.8081C37.1251 26.7777 37.1082 26.7498 37.0861 26.7262C37.064 26.7027 37.0372 26.6839 37.0074 26.671C36.9776 26.6582 36.9454 26.6516 36.9129 26.6517C36.8457 26.6517 36.7812 26.6782 36.7337 26.7253C36.6862 26.7724 36.6595 26.8362 36.6595 26.9028C36.6594 26.935 36.666 26.9669 36.679 26.9964C36.6919 27.0259 36.7109 27.0525 36.7347 27.0744C36.7585 27.0963 36.7866 27.1131 36.8173 27.1237C36.848 27.1343 36.8805 27.1385 36.9129 27.136V27.136Z" fill="white"/>
<path d="M35.5552 29.9698C35.5956 29.9698 35.6356 29.9619 35.6729 29.9466C35.7103 29.9312 35.7442 29.9088 35.7728 29.8805C35.8014 29.8522 35.824 29.8185 35.8395 29.7816C35.855 29.7446 35.8629 29.7049 35.8629 29.6649C35.8656 29.6242 35.8595 29.5833 35.8449 29.5451C35.8304 29.507 35.8078 29.4723 35.7787 29.4434C35.7496 29.4146 35.7146 29.3922 35.676 29.3778C35.6375 29.3634 35.5963 29.3573 35.5552 29.36C35.4735 29.36 35.3953 29.3921 35.3376 29.4493C35.2798 29.5065 35.2474 29.584 35.2474 29.6649C35.2518 29.7443 35.2856 29.8194 35.3424 29.8757C35.3992 29.932 35.475 29.9655 35.5552 29.9698V29.9698Z" fill="white"/>
<path d="M33.7448 32.5345C33.8236 32.5345 33.9006 32.5114 33.9661 32.468C34.0316 32.4247 34.0826 32.363 34.1128 32.2909C34.1429 32.2188 34.1508 32.1395 34.1354 32.063C34.1201 31.9864 34.0821 31.9161 34.0264 31.8609C33.9707 31.8057 33.8998 31.7682 33.8225 31.7529C33.7453 31.7377 33.6652 31.7455 33.5924 31.7754C33.5196 31.8053 33.4574 31.8558 33.4137 31.9207C33.3699 31.9856 33.3465 32.0619 33.3465 32.1399C33.3465 32.2446 33.3885 32.3449 33.4632 32.4189C33.5379 32.4929 33.6392 32.5345 33.7448 32.5345V32.5345Z" fill="white"/>
<path d="M31.5 34.7227C31.5981 34.7262 31.695 34.7004 31.7781 34.6486C31.8612 34.5968 31.9267 34.5214 31.9659 34.4322C32.0051 34.343 32.0163 34.2442 31.998 34.1486C31.9797 34.053 31.9328 33.9651 31.8634 33.8964C31.794 33.8276 31.7052 33.7811 31.6088 33.763C31.5123 33.7449 31.4126 33.756 31.3225 33.7948C31.2325 33.8337 31.1564 33.8985 31.1041 33.9808C31.0518 34.0631 31.0257 34.1592 31.0293 34.2564C31.0338 34.3786 31.0848 34.4947 31.1721 34.5812C31.2595 34.6677 31.3766 34.7183 31.5 34.7227Z" fill="white"/>
<path d="M28.9293 36.4803C29.2293 36.4803 29.4724 36.2394 29.4724 35.9422C29.4724 35.6451 29.2293 35.4042 28.9293 35.4042C28.6294 35.4042 28.3862 35.6451 28.3862 35.9422C28.3862 36.2394 28.6294 36.4803 28.9293 36.4803Z" fill="white"/>
<path d="M26.0871 37.682C26.387 37.682 26.6302 37.4411 26.6302 37.1439C26.6302 36.8467 26.387 36.6058 26.0871 36.6058C25.7871 36.6058 25.544 36.8467 25.544 37.1439C25.544 37.4411 25.7871 37.682 26.0871 37.682Z" fill="white"/>
<path d="M23.0638 38.3814C23.1748 38.3814 23.2833 38.3488 23.3756 38.2877C23.4679 38.2266 23.5398 38.1398 23.5823 38.0382C23.6248 37.9366 23.6359 37.8248 23.6142 37.7169C23.5926 37.6091 23.5391 37.51 23.4606 37.4323C23.3821 37.3545 23.2821 37.3015 23.1733 37.2801C23.0644 37.2586 22.9516 37.2696 22.849 37.3117C22.7465 37.3538 22.6588 37.4251 22.5972 37.5165C22.5355 37.6079 22.5026 37.7154 22.5026 37.8254C22.5026 37.9729 22.5617 38.1143 22.667 38.2185C22.7722 38.3228 22.915 38.3814 23.0638 38.3814V38.3814Z" fill="white"/>
<path d="M19.9138 38.5429C20.0674 38.5429 20.2148 38.4824 20.3234 38.3748C20.4321 38.2671 20.4931 38.1212 20.4931 37.9689C20.4931 37.8167 20.4321 37.6708 20.3234 37.5631C20.2148 37.4555 20.0674 37.395 19.9138 37.395C19.7601 37.395 19.6128 37.4555 19.5042 37.5631C19.3955 37.6708 19.3345 37.8167 19.3345 37.9689C19.3345 38.1212 19.3955 38.2671 19.5042 38.3748C19.6128 38.4824 19.7601 38.5429 19.9138 38.5429V38.5429Z" fill="white"/>
<path d="M16.9086 38.1483C17.2386 38.1483 17.506 37.8833 17.506 37.5565C17.506 37.2296 17.2386 36.9646 16.9086 36.9646C16.5787 36.9646 16.3112 37.2296 16.3112 37.5565C16.3112 37.8833 16.5787 38.1483 16.9086 38.1483Z" fill="white"/>
<path d="M13.9759 37.2694C14.1535 37.2694 14.3239 37.1995 14.4495 37.0751C14.5751 36.9506 14.6457 36.7818 14.6457 36.6058C14.6531 36.5134 14.6414 36.4204 14.6113 36.3326C14.5812 36.2449 14.5333 36.1641 14.4706 36.0952C14.4079 36.0264 14.3317 35.971 14.2466 35.9323C14.1616 35.8937 14.0694 35.8726 13.9759 35.8705C13.8879 35.8705 13.8008 35.8876 13.7195 35.921C13.6383 35.9543 13.5644 36.0032 13.5022 36.0648C13.44 36.1265 13.3907 36.1996 13.357 36.2801C13.3234 36.3606 13.306 36.4469 13.306 36.5341C13.2927 36.6276 13.3003 36.7229 13.3282 36.8132C13.3561 36.9035 13.4037 36.9867 13.4675 37.0568C13.5314 37.1269 13.61 37.1823 13.6979 37.219C13.7857 37.2558 13.8806 37.273 13.9759 37.2694V37.2694Z" fill="white"/>
<path d="M11.2422 35.8705C11.379 35.8741 11.5138 35.8372 11.6292 35.7645C11.7447 35.6918 11.8357 35.5867 11.8906 35.4625C11.9454 35.3383 11.9617 35.2007 11.9372 35.0674C11.9127 34.934 11.8487 34.8109 11.7532 34.7138C11.6578 34.6167 11.5353 34.5499 11.4014 34.5222C11.2674 34.4944 11.1282 34.5068 11.0014 34.5578C10.8747 34.6088 10.7661 34.6961 10.6897 34.8086C10.6133 34.921 10.5725 35.0534 10.5724 35.189C10.5724 35.3667 10.6423 35.5374 10.7675 35.6647C10.8926 35.792 11.0629 35.8659 11.2422 35.8705Z" fill="white"/>
<path d="M8.83448 34.077C9.04094 34.077 9.23894 33.9957 9.38493 33.8511C9.53092 33.7065 9.61293 33.5103 9.61293 33.3058C9.61293 33.1012 9.53092 32.9051 9.38493 32.7604C9.23894 32.6158 9.04094 32.5345 8.83448 32.5345C8.62803 32.5345 8.43002 32.6158 8.28404 32.7604C8.13805 32.9051 8.05603 33.1012 8.05603 33.3058C8.05603 33.407 8.07617 33.5073 8.11529 33.6009C8.15441 33.6945 8.21175 33.7795 8.28404 33.8511C8.35632 33.9227 8.44214 33.9795 8.53658 34.0183C8.63103 34.057 8.73226 34.077 8.83448 34.077Z" fill="white"/>
<path d="M6.78879 31.7992C6.96066 31.7992 7.12866 31.7487 7.27156 31.6541C7.41446 31.5595 7.52584 31.425 7.59161 31.2677C7.65738 31.1104 7.67459 30.9373 7.64106 30.7703C7.60753 30.6033 7.52477 30.4499 7.40324 30.3295C7.28172 30.2091 7.12688 30.1272 6.95832 30.0939C6.78976 30.0607 6.61504 30.0778 6.45625 30.1429C6.29747 30.2081 6.16176 30.3184 6.06627 30.46C5.97079 30.6016 5.91983 30.768 5.91983 30.9383C5.91983 31.1666 6.01138 31.3856 6.17434 31.547C6.3373 31.7085 6.55833 31.7992 6.78879 31.7992V31.7992Z" fill="white"/>
<path d="M5.21379 29.2344C5.35389 29.2741 5.50137 29.281 5.64461 29.2545C5.78786 29.2281 5.92296 29.1691 6.03928 29.0822C6.1556 28.9953 6.24996 28.8828 6.31494 28.7536C6.37992 28.6244 6.41374 28.482 6.41374 28.3377C6.41374 28.1933 6.37992 28.0509 6.31494 27.9217C6.24996 27.7925 6.1556 27.68 6.03928 27.5931C5.92296 27.5062 5.78786 27.4472 5.64461 27.4208C5.50137 27.3944 5.35389 27.4013 5.21379 27.4409C5.07369 27.4013 4.92622 27.3944 4.78297 27.4208C4.63973 27.4472 4.50463 27.5062 4.38831 27.5931C4.27199 27.68 4.17763 27.7925 4.11265 27.9217C4.04767 28.0509 4.01384 28.1933 4.01384 28.3377C4.01384 28.482 4.04767 28.6244 4.11265 28.7536C4.17763 28.8828 4.27199 28.9953 4.38831 29.0822C4.50463 29.1691 4.63973 29.2281 4.78297 29.2545C4.92622 29.281 5.07369 29.2741 5.21379 29.2344V29.2344Z" fill="white"/>
<path d="M4.12759 26.4545C4.39811 26.4498 4.65595 26.3401 4.84557 26.1488C5.03519 25.9576 5.14142 25.7003 5.14138 25.4322C5.14138 25.1659 5.03457 24.9104 4.84445 24.722C4.65432 24.5337 4.39646 24.4279 4.12759 24.4279C3.85871 24.4279 3.60085 24.5337 3.41073 24.722C3.2206 24.9104 3.11379 25.1659 3.11379 25.4322C3.11375 25.7003 3.21998 25.9576 3.4096 26.1488C3.59922 26.3401 3.85706 26.4498 4.12759 26.4545V26.4545Z" fill="white"/>
<path d="M3.56638 23.4593C4.14628 23.4593 4.61638 22.9935 4.61638 22.419C4.61638 21.8445 4.14628 21.3788 3.56638 21.3788C2.98648 21.3788 2.51638 21.8445 2.51638 22.419C2.51638 22.9935 2.98648 23.4593 3.56638 23.4593Z" fill="white"/>
<path d="M3.56638 20.3924C4.14628 20.3924 4.61638 19.9266 4.61638 19.3521C4.61638 18.7776 4.14628 18.3119 3.56638 18.3119C2.98648 18.3119 2.51638 18.7776 2.51638 19.3521C2.51638 19.9266 2.98648 20.3924 3.56638 20.3924Z" fill="white"/>
<path d="M4.12759 17.4151C4.34315 17.4187 4.55491 17.3586 4.7359 17.2426C4.91689 17.1265 5.05893 16.9597 5.14392 16.7634C5.22892 16.5671 5.25303 16.3502 5.21319 16.1403C5.17334 15.9304 5.07134 15.737 4.92018 15.5847C4.76902 15.4324 4.57553 15.3281 4.36434 15.2851C4.15316 15.2421 3.93384 15.2623 3.73431 15.3432C3.53477 15.4241 3.36405 15.562 3.24387 15.7393C3.1237 15.9167 3.05951 16.1254 3.05948 16.339C3.05708 16.4795 3.08293 16.619 3.13553 16.7495C3.18813 16.8799 3.26643 16.9987 3.36585 17.0989C3.46527 17.1991 3.58383 17.2786 3.71462 17.3329C3.8454 17.3872 3.98578 17.4152 4.12759 17.4151V17.4151Z" fill="white"/>
<path d="M5.21379 14.5814C5.83369 14.5814 6.33621 14.0835 6.33621 13.4694C6.33621 12.8553 5.83369 12.3574 5.21379 12.3574C4.5939 12.3574 4.09138 12.8553 4.09138 13.4694C4.09138 14.0835 4.5939 14.5814 5.21379 14.5814Z" fill="white"/>
<path d="M6.78879 12.0166C7.43868 12.0166 7.96552 11.4947 7.96552 10.8509C7.96552 10.207 7.43868 9.68506 6.78879 9.68506C6.13891 9.68506 5.61207 10.207 5.61207 10.8509C5.61207 11.4947 6.13891 12.0166 6.78879 12.0166Z" fill="white"/>
<path d="M8.83448 9.7389C9.50437 9.7389 10.0474 9.20089 10.0474 8.53723C10.0474 7.87357 9.50437 7.33557 8.83448 7.33557C8.1646 7.33557 7.62155 7.87357 7.62155 8.53723C7.62155 9.20089 8.1646 9.7389 8.83448 9.7389Z" fill="white"/>
<path d="M11.2422 7.90948C11.4965 7.90948 11.745 7.83479 11.9563 7.69487C12.1677 7.55495 12.3325 7.35607 12.4297 7.12339C12.527 6.8907 12.5525 6.63466 12.5029 6.38765C12.4533 6.14063 12.3309 5.91373 12.1511 5.73564C11.9714 5.55755 11.7423 5.43627 11.493 5.38714C11.2437 5.33801 10.9852 5.36322 10.7504 5.4596C10.5155 5.55598 10.3148 5.7192 10.1735 5.92861C10.0323 6.13802 9.9569 6.38422 9.9569 6.63607C9.9569 6.9738 10.0923 7.2977 10.3334 7.53651C10.5744 7.77532 10.9013 7.90948 11.2422 7.90948Z" fill="white"/>
<path d="M13.9759 6.5105C14.7157 6.5105 15.3155 5.91629 15.3155 5.18329C15.3155 4.45029 14.7157 3.85608 13.9759 3.85608C13.236 3.85608 12.6362 4.45029 12.6362 5.18329C12.6362 5.91629 13.236 6.5105 13.9759 6.5105Z" fill="white"/>
<path d="M16.9086 5.57786C17.1772 5.57786 17.4397 5.49897 17.6629 5.35116C17.8862 5.20336 18.0603 4.99328 18.163 4.74748C18.2658 4.50169 18.2927 4.23123 18.2403 3.97029C18.1879 3.70936 18.0586 3.46968 17.8687 3.28156C17.6788 3.09344 17.4369 2.96532 17.1735 2.91342C16.9101 2.86152 16.6371 2.88816 16.389 2.98997C16.1409 3.09178 15.9289 3.26419 15.7797 3.4854C15.6305 3.7066 15.5509 3.96667 15.5509 4.23272C15.5509 4.58947 15.6939 4.93162 15.9485 5.18388C16.2032 5.43614 16.5485 5.57786 16.9086 5.57786Z" fill="white"/>
<path d="M19.9138 5.16537C20.2739 5.16537 20.6192 5.02365 20.8739 4.77139C21.1285 4.51913 21.2716 4.17698 21.2716 3.82023C21.2751 3.54914 21.197 3.28316 21.0472 3.05627C20.8974 2.82939 20.6828 2.65191 20.4306 2.54653C20.1785 2.44114 19.9004 2.41264 19.6318 2.46466C19.3632 2.51668 19.1164 2.64687 18.9229 2.83857C18.7294 3.03027 18.598 3.27479 18.5455 3.54086C18.493 3.80693 18.5218 4.08247 18.6281 4.33226C18.7345 4.58205 18.9137 4.79474 19.1427 4.94314C19.3717 5.09154 19.6402 5.16892 19.9138 5.16537Z" fill="white"/>
<path d="M23.0638 5.32675C23.8237 5.32675 24.4397 4.71647 24.4397 3.96367C24.4397 3.21086 23.8237 2.60059 23.0638 2.60059C22.3039 2.60059 21.6879 3.21086 21.6879 3.96367C21.6879 4.71647 22.3039 5.32675 23.0638 5.32675Z" fill="white"/>
<path d="M26.0871 6.00831C26.4271 5.96973 26.7409 5.80858 26.9687 5.55556C27.1965 5.30254 27.3224 4.97532 27.3224 4.63626C27.3224 4.2972 27.1965 3.96999 26.9687 3.71697C26.7409 3.46394 26.4271 3.30279 26.0871 3.26422C25.8919 3.24207 25.6942 3.26105 25.507 3.3199C25.3197 3.37874 25.1471 3.47613 25.0006 3.60568C24.854 3.73523 24.7367 3.89402 24.6563 4.07162C24.576 4.24923 24.5345 4.44165 24.5345 4.63626C24.5345 4.83088 24.576 5.0233 24.6563 5.20091C24.7367 5.37851 24.854 5.5373 25.0006 5.66684C25.1471 5.79639 25.3197 5.89379 25.507 5.95263C25.6942 6.01148 25.8919 6.03045 26.0871 6.00831V6.00831Z" fill="white"/>
<path d="M28.9655 7.17414C29.1492 7.17655 29.3316 7.14248 29.5018 7.07393C29.6721 7.00538 29.8267 6.90374 29.9566 6.77502C30.0866 6.6463 30.1891 6.4931 30.2583 6.32446C30.3275 6.15581 30.3619 5.97515 30.3595 5.79312C30.3595 5.42686 30.2126 5.07559 29.9512 4.8166C29.6898 4.55761 29.3352 4.41211 28.9655 4.41211C28.5958 4.41211 28.2413 4.55761 27.9798 4.8166C27.7184 5.07559 27.5715 5.42686 27.5715 5.79312C27.5691 5.97515 27.6035 6.15581 27.6727 6.32446C27.7419 6.4931 27.8445 6.6463 27.9744 6.77502C28.1043 6.90374 28.259 7.00538 28.4292 7.07393C28.5994 7.14248 28.7818 7.17655 28.9655 7.17414V7.17414Z" fill="white"/>
<path d="M31.5 8.96758C31.7793 8.96758 32.0523 8.88553 32.2845 8.73181C32.5167 8.57809 32.6977 8.35961 32.8046 8.10398C32.9115 7.84836 32.9394 7.56708 32.8849 7.29571C32.8304 7.02434 32.696 6.77507 32.4985 6.57942C32.301 6.38377 32.0494 6.25054 31.7755 6.19656C31.5016 6.14258 31.2176 6.17028 30.9596 6.27617C30.7016 6.38205 30.4811 6.56136 30.3259 6.79141C30.1707 7.02147 30.0879 7.29194 30.0879 7.56863C30.0879 7.93965 30.2367 8.29548 30.5015 8.55784C30.7663 8.82019 31.1255 8.96758 31.5 8.96758V8.96758Z" fill="white"/>
<path d="M33.7448 11.0481C34.1193 11.0481 34.4785 10.9007 34.7433 10.6384C35.0081 10.376 35.1569 10.0202 35.1569 9.64919C35.1569 9.27649 35.0087 8.91879 34.7444 8.65358C34.4801 8.38838 34.121 8.23702 33.7448 8.2323C33.367 8.23695 33.0059 8.38772 32.7387 8.65244C32.4715 8.91715 32.3193 9.27485 32.3147 9.64919C32.3194 10.0218 32.4722 10.3776 32.7399 10.6395C33.0076 10.9014 33.3686 11.0482 33.7448 11.0481Z" fill="white"/>
<path d="M35.5552 13.577C36.365 13.577 37.0216 12.9266 37.0216 12.1243C37.0216 11.3219 36.365 10.6715 35.5552 10.6715C34.7453 10.6715 34.0888 11.3219 34.0888 12.1243C34.0888 12.9266 34.7453 13.577 35.5552 13.577Z" fill="white"/>
<path d="M36.9129 16.357C37.3035 16.3523 37.6764 16.1952 37.9509 15.9199C38.2254 15.6446 38.3793 15.2733 38.3793 14.8863C38.339 14.5265 38.1662 14.1941 37.894 13.9527C37.6218 13.7112 37.2692 13.5778 36.9039 13.5778C36.5385 13.5778 36.186 13.7112 35.9138 13.9527C35.6415 14.1941 35.4687 14.5265 35.4284 14.8863C35.4284 15.2763 35.5848 15.6504 35.8632 15.9262C36.1416 16.202 36.5192 16.357 36.9129 16.357Z" fill="white"/>
<path d="M37.7276 19.37C38.5774 19.37 39.2664 18.6875 39.2664 17.8455C39.2664 17.0036 38.5774 16.321 37.7276 16.321C36.8777 16.321 36.1888 17.0036 36.1888 17.8455C36.1888 18.6875 36.8777 19.37 37.7276 19.37Z" fill="white"/>
<path d="M39.5017 27.1539C39.5405 27.1705 39.583 27.1765 39.6249 27.1713C39.6667 27.166 39.7064 27.1497 39.7397 27.124C39.773 27.0983 39.7988 27.0643 39.8142 27.0253C39.8297 26.9864 39.8343 26.9441 39.8276 26.9028C39.8276 26.841 39.8028 26.7817 39.7587 26.738C39.7145 26.6942 39.6547 26.6697 39.5922 26.6697C39.5298 26.6697 39.47 26.6942 39.4258 26.738C39.3817 26.7817 39.3569 26.841 39.3569 26.9028C39.349 26.9547 39.359 27.0077 39.3853 27.0533C39.4115 27.0989 39.4526 27.1343 39.5017 27.1539V27.1539Z" fill="white"/>
<path d="M38.325 29.9877C38.3551 29.9878 38.3849 29.9817 38.4125 29.9698C38.4402 29.9579 38.465 29.9404 38.4854 29.9185C38.5058 29.8965 38.5214 29.8706 38.5312 29.8424C38.541 29.8142 38.5448 29.7843 38.5422 29.7545C38.5422 29.6975 38.5194 29.6427 38.4786 29.6024C38.4379 29.562 38.3826 29.5393 38.325 29.5393C38.295 29.5368 38.2648 29.5406 38.2363 29.5503C38.2078 29.56 38.1817 29.5754 38.1595 29.5957C38.1374 29.6159 38.1198 29.6405 38.1077 29.6678C38.0957 29.6952 38.0896 29.7247 38.0897 29.7545C38.0897 29.8164 38.1145 29.8757 38.1586 29.9194C38.2027 29.9631 38.2626 29.9877 38.325 29.9877V29.9877Z" fill="white"/>
<path d="M36.6957 32.678C36.7773 32.678 36.8556 32.6459 36.9133 32.5887C36.971 32.5316 37.0034 32.454 37.0034 32.3731C37.0034 32.2923 36.971 32.2147 36.9133 32.1575C36.8556 32.1004 36.7773 32.0682 36.6957 32.0682C36.6141 32.0682 36.5358 32.1004 36.4781 32.1575C36.4204 32.2147 36.3879 32.2923 36.3879 32.3731C36.3879 32.454 36.4204 32.5316 36.4781 32.5887C36.5358 32.6459 36.6141 32.678 36.6957 32.678V32.678Z" fill="white"/>
<path d="M34.6862 35.1352C34.7772 35.1387 34.8671 35.115 34.9442 35.0671C35.0214 35.0193 35.0821 34.9495 35.1186 34.8668C35.1551 34.7842 35.1656 34.6926 35.1487 34.604C35.1318 34.5154 35.0884 34.4339 35.024 34.3701C34.9596 34.3063 34.8773 34.2633 34.7879 34.2465C34.6985 34.2298 34.606 34.2402 34.5226 34.2763C34.4392 34.3125 34.3687 34.3727 34.3204 34.4491C34.2721 34.5255 34.2482 34.6146 34.2517 34.7047C34.2562 34.8175 34.3034 34.9244 34.3839 35.0042C34.4645 35.084 34.5724 35.1308 34.6862 35.1352Z" fill="white"/>
<path d="M32.3328 37.1798C32.4301 37.1834 32.5263 37.1581 32.6091 37.1071C32.6918 37.0561 32.7573 36.9818 32.797 36.8937C32.8368 36.8056 32.8491 36.7077 32.8324 36.6126C32.8156 36.5175 32.7705 36.4296 32.7029 36.36C32.6354 36.2905 32.5484 36.2426 32.4531 36.2224C32.3578 36.2022 32.2586 36.2107 32.1682 36.2467C32.0779 36.2828 32.0004 36.3448 31.9459 36.4248C31.8913 36.5048 31.8621 36.5991 31.8621 36.6956C31.862 36.821 31.911 36.9415 31.9988 37.0318C32.0866 37.1221 32.2063 37.1752 32.3328 37.1798V37.1798Z" fill="white"/>
<path d="M29.7078 38.8298C30.0077 38.8298 30.2509 38.5889 30.2509 38.2917C30.2509 37.9946 30.0077 37.7537 29.7078 37.7537C29.4078 37.7537 29.1647 37.9946 29.1647 38.2917C29.1647 38.5889 29.4078 38.8298 29.7078 38.8298Z" fill="white"/>
<path d="M26.8474 40.0136C26.9599 40.0171 27.0708 39.9871 27.1658 39.9274C27.2608 39.8677 27.3355 39.781 27.3802 39.6787C27.4249 39.5765 27.4376 39.4632 27.4165 39.3537C27.3954 39.2442 27.3416 39.1435 27.2621 39.0647C27.1825 38.9859 27.0809 38.9326 26.9703 38.9117C26.8598 38.8908 26.7455 38.9033 26.6423 38.9476C26.539 38.9919 26.4516 39.0659 26.3913 39.1601C26.331 39.2542 26.3007 39.3641 26.3043 39.4755C26.3043 39.6182 26.3615 39.7551 26.4634 39.856C26.5652 39.9569 26.7034 40.0136 26.8474 40.0136V40.0136Z" fill="white"/>
<path d="M23.8422 40.7489C23.9568 40.7489 24.0688 40.7153 24.1641 40.6522C24.2594 40.5891 24.3336 40.4995 24.3775 40.3946C24.4213 40.2898 24.4328 40.1744 24.4104 40.063C24.3881 39.9517 24.3329 39.8494 24.2519 39.7692C24.1709 39.6889 24.0676 39.6342 23.9553 39.6121C23.8429 39.59 23.7264 39.6013 23.6205 39.6448C23.5147 39.6882 23.4242 39.7618 23.3606 39.8561C23.2969 39.9505 23.2629 40.0615 23.2629 40.175C23.2604 40.251 23.2737 40.3268 23.3019 40.3976C23.3301 40.4683 23.3727 40.5326 23.427 40.5864C23.4813 40.6402 23.5462 40.6824 23.6176 40.7103C23.689 40.7383 23.7655 40.7514 23.8422 40.7489Z" fill="white"/>
<path d="M20.7466 41C20.9002 41 21.0475 40.9395 21.1562 40.8319C21.2648 40.7243 21.3259 40.5783 21.3259 40.4261C21.3408 40.3435 21.3372 40.2586 21.3155 40.1775C21.2937 40.0964 21.2542 40.021 21.1998 39.9567C21.1455 39.8923 21.0775 39.8405 21.0008 39.805C20.924 39.7695 20.8403 39.7511 20.7556 39.7511C20.6709 39.7511 20.5872 39.7695 20.5105 39.805C20.4337 39.8405 20.3657 39.8923 20.3114 39.9567C20.257 40.021 20.2175 40.0964 20.1958 40.1775C20.174 40.2586 20.1704 40.3435 20.1853 40.4261C20.1853 40.5752 20.2438 40.7186 20.3486 40.8257C20.4533 40.9328 20.5961 40.9954 20.7466 41V41Z" fill="white"/>
<path d="M17.669 40.7668C17.7878 40.7704 17.9051 40.7387 18.0057 40.6759C18.1063 40.6131 18.1856 40.522 18.2336 40.4142C18.2816 40.3064 18.2961 40.1869 18.2751 40.0709C18.2542 39.9549 18.1987 39.8478 18.116 39.7632C18.0332 39.6786 17.9268 39.6205 17.8104 39.5961C17.6941 39.5718 17.573 39.5824 17.4628 39.6266C17.3526 39.6709 17.2582 39.7467 17.1917 39.8444C17.1253 39.942 17.0897 40.0572 17.0897 40.175C17.0872 40.2518 17.1004 40.3284 17.1284 40.4001C17.1565 40.4718 17.1988 40.5372 17.2528 40.5924C17.3068 40.6476 17.3715 40.6915 17.443 40.7215C17.5145 40.7514 17.5913 40.7669 17.669 40.7668Z" fill="white"/>
<path d="M14.6638 40.1032C14.8157 40.0779 14.9537 40 15.0532 39.8835C15.1527 39.7669 15.2073 39.6192 15.2073 39.4665C15.2073 39.3139 15.1527 39.1662 15.0532 39.0496C14.9537 38.9331 14.8157 38.8552 14.6638 38.8298C14.5119 38.8552 14.3739 38.9331 14.2744 39.0496C14.1749 39.1662 14.1203 39.3139 14.1203 39.4665C14.1203 39.6192 14.1749 39.7669 14.2744 39.8835C14.3739 40 14.5119 40.0779 14.6638 40.1032Z" fill="white"/>
<path d="M11.8034 38.9733C12.1834 38.9733 12.4914 38.6682 12.4914 38.2918C12.4914 37.9154 12.1834 37.6102 11.8034 37.6102C11.4235 37.6102 11.1155 37.9154 11.1155 38.2918C11.1155 38.6682 11.4235 38.9733 11.8034 38.9733Z" fill="white"/>
<path d="M9.16034 37.4309C9.3572 37.4309 9.54599 37.3534 9.68519 37.2155C9.82439 37.0776 9.90259 36.8906 9.90259 36.6955C9.91928 36.5906 9.91283 36.4833 9.88366 36.3811C9.85449 36.2788 9.8033 36.184 9.73362 36.1033C9.66394 36.0225 9.57742 35.9577 9.48002 35.9132C9.38261 35.8687 9.27664 35.8457 9.1694 35.8457C9.06215 35.8457 8.95618 35.8687 8.85877 35.9132C8.76137 35.9577 8.67485 36.0225 8.60517 36.1033C8.53549 36.184 8.4843 36.2788 8.45514 36.3811C8.42597 36.4833 8.41951 36.5906 8.43621 36.6955C8.43615 36.8875 8.51186 37.0719 8.64716 37.2093C8.78247 37.3467 8.96664 37.4262 9.16034 37.4309V37.4309Z" fill="white"/>
<path d="M6.8069 35.5118C6.91388 35.5118 7.01981 35.4909 7.11865 35.4503C7.21749 35.4098 7.3073 35.3503 7.38294 35.2754C7.45859 35.2004 7.5186 35.1114 7.55954 35.0135C7.60048 34.9156 7.62155 34.8107 7.62155 34.7047C7.62155 34.5987 7.60048 34.4937 7.55954 34.3958C7.5186 34.2979 7.45859 34.2089 7.38294 34.134C7.3073 34.059 7.21749 33.9996 7.11865 33.959C7.01981 33.9185 6.91388 33.8976 6.8069 33.8976C6.59084 33.8976 6.38363 33.9826 6.23085 34.134C6.07807 34.2853 5.99224 34.4906 5.99224 34.7047C5.99224 34.9187 6.07807 35.124 6.23085 35.2754C6.38363 35.4267 6.59084 35.5118 6.8069 35.5118V35.5118Z" fill="white"/>
<path d="M4.79741 33.3058C4.98433 33.3093 5.16808 33.2577 5.32526 33.1574C5.48243 33.0571 5.6059 32.9127 5.67993 32.7426C5.75397 32.5726 5.77521 32.3845 5.74096 32.2024C5.70671 32.0204 5.61851 31.8525 5.4876 31.7203C5.3567 31.588 5.18902 31.4974 5.00593 31.46C4.82284 31.4225 4.63265 31.4399 4.45957 31.5099C4.2865 31.5799 4.1384 31.6994 4.03413 31.8532C3.92987 32.0069 3.87417 32.1879 3.87414 32.3731C3.87409 32.6174 3.97078 32.852 4.14343 33.0263C4.31608 33.2007 4.5509 33.3011 4.79741 33.3058V33.3058Z" fill="white"/>
<path d="M3.18621 30.6872C3.37239 30.6872 3.5544 30.6325 3.70921 30.53C3.86402 30.4275 3.98468 30.2819 4.05593 30.1114C4.12718 29.941 4.14582 29.7535 4.1095 29.5726C4.07317 29.3917 3.98352 29.2255 3.85186 29.0951C3.72021 28.9646 3.55247 28.8758 3.36986 28.8398C3.18725 28.8038 2.99797 28.8223 2.82596 28.8929C2.65394 28.9635 2.50692 29.083 2.40348 29.2364C2.30004 29.3898 2.24483 29.5701 2.24483 29.7545C2.24483 29.877 2.26918 29.9983 2.31649 30.1114C2.36379 30.2246 2.43314 30.3274 2.52055 30.414C2.60797 30.5006 2.71174 30.5693 2.82596 30.6162C2.94017 30.663 3.06258 30.6872 3.18621 30.6872V30.6872Z" fill="white"/>
<path d="M2.00948 27.9432C2.145 27.9408 2.27872 27.9121 2.40302 27.8585C2.52732 27.805 2.63975 27.7277 2.73389 27.6311C2.82803 27.5345 2.90204 27.4205 2.9517 27.2955C3.00135 27.1706 3.02567 27.0372 3.02328 26.9029C3.02328 26.6366 2.91647 26.3811 2.72634 26.1927C2.53622 26.0044 2.27836 25.8986 2.00948 25.8986C1.73891 25.8985 1.47915 26.0038 1.28615 26.1916C1.09314 26.3795 0.982333 26.6349 0.977586 26.9029C0.977545 27.1757 1.08568 27.4377 1.2787 27.6322C1.47171 27.8268 1.73415 27.9385 2.00948 27.9432V27.9432Z" fill="white"/>
<path d="M1.28534 24.948C1.48585 24.948 1.68186 24.8891 1.84858 24.7787C2.0153 24.6683 2.14524 24.5115 2.22197 24.3279C2.2987 24.1444 2.31878 23.9425 2.27966 23.7476C2.24054 23.5528 2.14399 23.3738 2.0022 23.2334C1.86042 23.0929 1.67978 22.9973 1.48313 22.9585C1.28647 22.9198 1.08263 22.9396 0.897383 23.0157C0.712136 23.0917 0.553804 23.2204 0.442407 23.3856C0.33101 23.5508 0.271552 23.7449 0.271552 23.9436C0.271552 24.21 0.378362 24.4654 0.568485 24.6538C0.758608 24.8421 1.01647 24.948 1.28534 24.948V24.948Z" fill="white"/>
<path d="M1.0319 21.9169C1.30557 21.9169 1.56804 21.8092 1.76156 21.6175C1.95508 21.4258 2.06379 21.1658 2.06379 20.8946C2.06379 20.6235 1.95508 20.3635 1.76156 20.1717C1.56804 19.98 1.30557 19.8723 1.0319 19.8723C0.758221 19.8723 0.495754 19.98 0.302235 20.1717C0.108717 20.3635 0 20.6235 0 20.8946C0 21.1658 0.108717 21.4258 0.302235 21.6175C0.495754 21.8092 0.758221 21.9169 1.0319 21.9169V21.9169Z" fill="white"/>
<path d="M1.28534 18.8858C1.50175 18.8883 1.71382 18.8257 1.89348 18.7061C2.07313 18.5866 2.21189 18.4158 2.29137 18.2164C2.37086 18.0169 2.38732 17.7983 2.33858 17.5894C2.28984 17.3805 2.17819 17.1912 2.01843 17.0466C1.85867 16.9019 1.65833 16.8088 1.44394 16.7795C1.22955 16.7502 1.01123 16.7861 0.8179 16.8824C0.624567 16.9788 0.465341 17.131 0.36131 17.3191C0.257279 17.5071 0.213351 17.722 0.235345 17.9353C0.258057 18.1953 0.378631 18.4374 0.573137 18.6135C0.767643 18.7896 1.02186 18.8868 1.28534 18.8858V18.8858Z" fill="white"/>
<path d="M2.00948 15.9265C2.60938 15.9265 3.09569 15.4447 3.09569 14.8504C3.09569 14.2561 2.60938 13.7743 2.00948 13.7743C1.40959 13.7743 0.923276 14.2561 0.923276 14.8504C0.923276 15.4447 1.40959 15.9265 2.00948 15.9265Z" fill="white"/>
<path d="M3.18621 13.1465C3.41252 13.1501 3.63478 13.0869 3.8247 12.9649C4.01462 12.8429 4.16362 12.6677 4.25273 12.4616C4.34183 12.2555 4.36702 12.0277 4.32507 11.8074C4.28313 11.587 4.17596 11.384 4.0172 11.2242C3.85844 11.0644 3.65528 10.955 3.43356 10.9099C3.21184 10.8648 2.9816 10.8861 2.77214 10.9711C2.56268 11.0561 2.38347 11.2009 2.25733 11.387C2.13119 11.5732 2.06382 11.7924 2.06379 12.0166C2.06376 12.3132 2.18143 12.5979 2.39142 12.8093C2.60141 13.0207 2.88687 13.1418 3.18621 13.1465V13.1465Z" fill="white"/>
<path d="M4.79741 10.546C5.4273 10.546 5.93793 10.0401 5.93793 9.41605C5.93793 8.79202 5.4273 8.28613 4.79741 8.28613C4.16752 8.28613 3.6569 8.79202 3.6569 9.41605C3.6569 10.0401 4.16752 10.546 4.79741 10.546Z" fill="white"/>
<path d="M6.8069 8.28614C7.47678 8.28614 8.01983 7.74813 8.01983 7.08447C8.01983 6.42082 7.47678 5.88281 6.8069 5.88281C6.13701 5.88281 5.59397 6.42082 5.59397 7.08447C5.59397 7.74813 6.13701 8.28614 6.8069 8.28614Z" fill="white"/>
<path d="M9.16034 6.34907C9.86022 6.34907 10.4276 5.78698 10.4276 5.0936C10.4276 4.40023 9.86022 3.83813 9.16034 3.83813C8.46047 3.83813 7.8931 4.40023 7.8931 5.0936C7.8931 5.78698 8.46047 6.34907 9.16034 6.34907Z" fill="white"/>
<path d="M11.8034 4.78877C12.07 4.79149 12.3312 4.71428 12.5527 4.56727C12.7741 4.42027 12.9456 4.21034 13.0444 3.96505C13.1433 3.71977 13.1649 3.4506 13.1066 3.1929C13.0482 2.9352 12.9125 2.70101 12.7174 2.52108C12.5222 2.34116 12.2767 2.22392 12.013 2.18476C11.7494 2.1456 11.48 2.18635 11.2401 2.30165C11.0003 2.41696 10.8012 2.60143 10.6692 2.83085C10.5371 3.06026 10.4781 3.32388 10.5 3.5871C10.523 3.91381 10.6704 4.21968 10.9124 4.44278C11.1544 4.66588 11.4729 4.78956 11.8034 4.78877Z" fill="white"/>
<path d="M14.6638 3.58704C14.9288 3.58704 15.1878 3.5092 15.4081 3.36336C15.6284 3.21753 15.8001 3.01024 15.9015 2.76773C16.0029 2.52521 16.0294 2.25835 15.9777 2.0009C15.926 1.74345 15.7984 1.50696 15.6111 1.32135C15.4237 1.13573 15.185 1.00933 14.9251 0.95812C14.6653 0.906909 14.3959 0.933192 14.1511 1.03365C13.9063 1.1341 13.6971 1.30421 13.5499 1.52247C13.4027 1.74073 13.3241 1.99733 13.3241 2.25983C13.3241 2.61182 13.4653 2.94941 13.7165 3.19831C13.9677 3.44721 14.3085 3.58704 14.6638 3.58704V3.58704Z" fill="white"/>
<path d="M17.669 2.95926C17.8617 2.98126 18.0569 2.96266 18.2418 2.90465C18.4267 2.84664 18.5972 2.75055 18.742 2.62268C18.8868 2.49481 19.0027 2.33805 19.082 2.16269C19.1614 1.98732 19.2024 1.79732 19.2024 1.60515C19.2024 1.41297 19.1614 1.22297 19.082 1.0476C19.0027 0.87224 18.8868 0.71548 18.742 0.587609C18.5972 0.459738 18.4267 0.363647 18.2418 0.305641C18.0569 0.247635 17.8617 0.229025 17.669 0.251033C17.4891 0.248658 17.3106 0.281697 17.1438 0.348232C16.977 0.414768 16.8252 0.513474 16.6972 0.638619C16.5692 0.763765 16.4675 0.912856 16.3982 1.07724C16.3288 1.24162 16.2931 1.41801 16.2931 1.59618C16.2907 1.77585 16.3246 1.95418 16.3929 2.12065C16.4612 2.28711 16.5624 2.43834 16.6907 2.56539C16.8189 2.69245 16.9716 2.79277 17.1396 2.86041C17.3076 2.92806 17.4876 2.96167 17.669 2.95926Z" fill="white"/>
<path d="M20.7466 2.72616C21.5064 2.72616 22.1224 2.11589 22.1224 1.36308C22.1224 0.610271 21.5064 0 20.7466 0C19.9867 0 19.3707 0.610271 19.3707 1.36308C19.3707 2.11589 19.9867 2.72616 20.7466 2.72616Z" fill="white"/>
<path d="M23.8422 2.95931C24.6021 2.95931 25.2181 2.34904 25.2181 1.59623C25.2181 0.843426 24.6021 0.233154 23.8422 0.233154C23.0824 0.233154 22.4664 0.843426 22.4664 1.59623C22.4664 2.34904 23.0824 2.95931 23.8422 2.95931Z" fill="white"/>
<path d="M26.8474 3.67672C27.6073 3.67672 28.2233 3.06645 28.2233 2.31364C28.2233 1.56083 27.6073 0.950562 26.8474 0.950562C26.0875 0.950562 25.4715 1.56083 25.4715 2.31364C25.4715 3.06645 26.0875 3.67672 26.8474 3.67672Z" fill="white"/>
<path d="M29.7078 4.86041C29.9879 4.85957 30.2613 4.77512 30.4923 4.61807C30.7233 4.46102 30.9011 4.23866 31.0027 3.97999C31.1042 3.72131 31.1248 3.43833 31.0616 3.16793C30.9984 2.89753 30.8544 2.65227 30.6485 2.46412C30.4425 2.27598 30.1841 2.15368 29.907 2.11318C29.6298 2.07267 29.3468 2.11584 29.0947 2.23705C28.8427 2.35826 28.6334 2.5519 28.4941 2.7927C28.3548 3.0335 28.292 3.31031 28.3138 3.58701C28.337 3.93588 28.4946 4.26258 28.754 4.49959C29.0135 4.73659 29.3549 4.86577 29.7078 4.86041V4.86041Z" fill="white"/>
<path d="M32.3328 6.4926C33.1126 6.4926 33.7448 5.86627 33.7448 5.09365C33.7448 4.32103 33.1126 3.6947 32.3328 3.6947C31.5529 3.6947 30.9207 4.32103 30.9207 5.09365C30.9207 5.86627 31.5529 6.4926 32.3328 6.4926Z" fill="white"/>
<path d="M34.6862 8.48336C34.9743 8.48615 35.2565 8.40269 35.4959 8.2439C35.7353 8.08511 35.9206 7.8584 36.0278 7.59346C36.1349 7.32852 36.1588 7.0377 36.0963 6.75909C36.0338 6.48048 35.8878 6.22707 35.6774 6.03205C35.4671 5.83702 35.2022 5.70947 34.9175 5.66611C34.6327 5.62274 34.3414 5.66558 34.0817 5.78902C33.8219 5.91245 33.6058 6.11072 33.4618 6.35786C33.3177 6.60501 33.2523 6.8895 33.2741 7.17409C33.2972 7.52935 33.4561 7.86256 33.7184 8.10582C33.9808 8.34908 34.3269 8.48409 34.6862 8.48336Z" fill="white"/>
<path d="M36.6957 10.8329C37.4856 10.8329 38.1259 10.1986 38.1259 9.41603C38.1259 8.63351 37.4856 7.99915 36.6957 7.99915C35.9058 7.99915 35.2655 8.63351 35.2655 9.41603C35.2655 10.1986 35.9058 10.8329 36.6957 10.8329Z" fill="white"/>
<path d="M38.325 13.4873C38.6186 13.4873 38.9056 13.401 39.1497 13.2394C39.3939 13.0778 39.5841 12.8481 39.6965 12.5794C39.8088 12.3107 39.8382 12.015 39.781 11.7297C39.7237 11.4444 39.5823 11.1823 39.3747 10.9767C39.1671 10.771 38.9026 10.6309 38.6146 10.5742C38.3266 10.5174 38.0282 10.5465 37.7569 10.6578C37.4857 10.7692 37.2538 10.9577 37.0907 11.1995C36.9276 11.4414 36.8405 11.7257 36.8405 12.0166C36.8405 12.4066 36.9969 12.7807 37.2753 13.0565C37.5537 13.3323 37.9313 13.4873 38.325 13.4873Z" fill="white"/>
<path d="M39.5017 16.3391C40.3316 16.3391 41.0043 15.6726 41.0043 14.8504C41.0043 14.0283 40.3316 13.3618 39.5017 13.3618C38.6719 13.3618 37.9991 14.0283 37.9991 14.8504C37.9991 15.6726 38.6719 16.3391 39.5017 16.3391Z" fill="white"/>
<path d="M40.2259 19.37C40.5346 19.37 40.8363 19.2791 41.0927 19.1088C41.3491 18.9385 41.5486 18.6965 41.6659 18.4136C41.7832 18.1307 41.8129 17.8197 41.7514 17.52C41.6898 17.2203 41.5397 16.9455 41.3202 16.7306C41.1006 16.5156 40.8215 16.3701 40.5183 16.3126C40.2152 16.2552 39.9016 16.2883 39.6174 16.4078C39.3333 16.5273 39.0914 16.7278 38.9225 16.9838C38.7536 17.2398 38.6654 17.5397 38.669 17.8455C38.6737 18.2515 38.8399 18.6392 39.1313 18.9246C39.4228 19.21 39.8161 19.37 40.2259 19.37V19.37Z" fill="white"/>
<path d="M42 20.9484C42 21.9771 41.6921 22.9827 41.1152 23.8381C40.5383 24.6934 39.7184 25.3601 38.7591 25.7537C37.7998 26.1474 36.7442 26.2504 35.7258 26.0497C34.7074 25.849 33.7719 25.3536 33.0377 24.6262C32.3035 23.8988 31.8034 22.9721 31.6009 21.9631C31.3983 20.9542 31.5023 19.9084 31.8996 18.958C32.297 18.0076 32.9699 17.1953 33.8333 16.6238C34.6966 16.0522 35.7116 15.7472 36.75 15.7472C38.1424 15.7472 39.4777 16.2952 40.4623 17.2706C41.4469 18.246 42 19.569 42 20.9484V20.9484Z" fill="white"/>
</svg>
